PathFileType  4	(X/Y/Z) C:\Users\antoi\Documents\MyRepositories\mobilecap\ResultsAnalysis
DataRate	CameraRate	NumFrames	NumMarkers	Units	OrigDataRate	OrigDataStartFrame	OrigNumFrames
100.0	100.0	7	51	mm	100.0	414	662
Frame#	Time	r_knee			r_shank_antsup			r_ankle			r_calc			r_5meta			r_toe			L_knee			L_shank_antsup			L_ankle			L_calc			L_5meta			L_toe			r_sh2			r_sh3			r_sh4			L_sh2			L_sh3			r_thigh1			r_thigh2			r_thigh3			r_thigh4			r_thigh5			L_thigh1			L_thigh2			L_thigh3			L_thigh4			r.ASIS			r.PSIS			L.ASIS			L.PSIS			C7			R_Shoulder			L_Shoulder			R_Sternum			L_Sternum			R_humerus			R_elbow_med			R_elbow_lat			R_forearm			R_wrist_radius			R_wrist_ulna			L_humerus			L_elbow_med			L_elbow_lat			L_forearm			L_wrist_radius			L_wrist_ulna			R_HJC			L_HJC			R_HJC_reg			L_HJC_reg			
		X1	Y1	Z1	X2	Y2	Z2	X3	Y3	Z3	X4	Y4	Z4	X5	Y5	Z5	X6	Y6	Z6	X7	Y7	Z7	X8	Y8	Z8	X9	Y9	Z9	X10	Y10	Z10	X11	Y11	Z11	X12	Y12	Z12	X13	Y13	Z13	X14	Y14	Z14	X15	Y15	Z15	X16	Y16	Z16	X17	Y17	Z17	X18	Y18	Z18	X19	Y19	Z19	X20	Y20	Z20	X21	Y21	Z21	X22	Y22	Z22	X23	Y23	Z23	X24	Y24	Z24	X25	Y25	Z25	X26	Y26	Z26	X27	Y27	Z27	X28	Y28	Z28	X29	Y29	Z29	X30	Y30	Z30	X31	Y31	Z31	X32	Y32	Z32	X33	Y33	Z33	X34	Y34	Z34	X35	Y35	Z35	X36	Y36	Z36	X37	Y37	Z37	X38	Y38	Z38	X39	Y39	Z39	X40	Y40	Z40	X41	Y41	Z41	X42	Y42	Z42	X43	Y43	Z43	X44	Y44	Z44	X45	Y45	Z45	X46	Y46	Z46	X47	Y47	Z47	X48	Y48	Z48	X49	Y49	Z49	X50	Y50	Z50	X51	Y51	Z51	

414	4.13000000	-175.53902	465.23694	-409.33582	-124.08241	389.86581	-405.94214	-299.48752	97.15198	-404.23990	-369.12230	62.22659	-442.61235	-208.19099	46.00765	-350.11662	-153.79771	71.44431	-399.43579	-180.53936	461.98782	-919.05748	-142.36811	369.01386	-936.41136	-299.59288	97.38363	-905.76099	-368.44027	62.91967	-861.06634	-201.04759	41.66093	-959.44523	-155.35904	63.23738	-906.86860	-185.56043	292.97887	-384.57345	-194.95086	427.44576	-391.65093	-250.32333	329.26157	-384.40851	-224.49218	405.17099	-928.25136	-265.45650	288.88789	-934.26841	-421.07253	662.95388	-477.26909	-324.63871	611.00764	-452.46215	-338.19782	553.43614	-417.97675	-479.51832	569.38609	-454.99481	-375.91877	514.01375	-434.44137	-404.72297	618.30451	-910.17732	-279.05977	564.16474	-917.52151	-447.70194	515.74147	-867.92711	-317.45017	465.33297	-893.46424	-417.51537	686.43115	-551.49819	-587.69021	764.07529	-622.86136	-421.78638	690.54545	-799.15242	-595.52432	772.32516	-717.11773	-356.45363	1119.99329	-674.18029	-242.67117	1088.66467	-524.98067	-251.58295	1099.01575	-820.41809	-223.91744	1042.61279	-650.80951	-220.69099	1043.97010	-687.35280	-202.28486	1020.61586	-421.47090	-171.16549	813.30311	-345.63255	-139.80411	875.51362	-301.50749	-46.25392	896.76732	-404.57066	32.05295	906.10951	-499.34458	57.21887	883.74056	-489.90561	-202.08958	1041.75441	-911.20007	-144.31867	819.91008	-990.50820	-123.80539	895.13411	-1029.58085	-70.56661	922.19372	-935.50527	8.88056	940.96257	-820.19684	38.91439	935.63485	-836.81313	-505.25709	623.70415	-574.18669	-510.43239	632.75773	-780.39420	-496.85488	624.37372	-584.82504	-510.34616	638.58164	-747.14558	
415	4.14000000	-175.52523	465.74608	-408.71191	-124.59870	390.25508	-405.32099	-299.50744	97.17630	-404.17130	-369.08866	62.24862	-442.57013	-208.19075	46.02493	-349.90904	-153.81786	71.35089	-399.40009	-181.16962	462.95717	-920.10430	-143.56259	369.62982	-937.28920	-299.60974	97.34149	-905.86467	-368.46579	63.02735	-861.08680	-201.04534	41.55958	-959.63366	-155.36006	62.99958	-906.98311	-185.99801	293.10166	-384.12660	-195.51260	427.77223	-391.22624	-250.83269	330.07498	-383.98717	-225.74967	405.63822	-928.92243	-266.41427	288.99700	-934.35954	-415.28737	669.74687	-477.38230	-320.36789	616.17393	-450.81144	-336.03083	558.57267	-417.45067	-476.47529	578.09601	-455.78518	-374.55113	520.17443	-434.60693	-401.20990	625.24855	-910.09644	-276.98749	567.65766	-918.39948	-446.34520	523.81140	-866.55646	-317.73202	470.28307	-893.91059	-413.76757	697.63454	-550.73354	-584.96888	774.81309	-622.58214	-418.09725	701.14275	-799.20044	-592.75720	782.82714	-717.18427	-357.27554	1133.69249	-674.07608	-243.56518	1102.45649	-523.45523	-252.86827	1112.74364	-820.74982	-224.09061	1057.46585	-650.59893	-220.50368	1058.81302	-687.43340	-205.28182	1031.60819	-420.16807	-180.05742	823.00379	-345.19391	-147.50835	884.20574	-300.47498	-52.65533	903.73556	-402.55842	26.71988	911.81501	-496.61996	51.28444	888.76081	-487.06608	-204.15585	1053.43781	-912.43666	-153.39903	829.68784	-991.13466	-131.63873	904.20873	-1031.34223	-77.14893	930.61028	-938.07917	4.07532	948.43310	-823.45865	33.84125	942.15556	-840.61393	-501.67601	634.71529	-573.69134	-506.83809	643.22957	-779.92025	-493.23512	635.03456	-584.11899	-506.64590	648.83341	-747.01580	
416	4.15000000	-175.77772	466.31505	-408.27572	-125.40614	390.72856	-405.00513	-299.54379	97.24048	-404.02006	-369.09062	62.27112	-442.53718	-208.21475	45.95448	-349.81355	-153.84414	71.27774	-399.35812	-182.04683	463.94578	-920.64726	-144.90917	370.44964	-938.20748	-299.65543	97.26218	-905.88960	-368.48761	63.07209	-861.08755	-201.04974	41.51368	-959.78940	-155.38078	62.87776	-907.06880	-186.71475	293.52242	-383.71569	-196.26786	428.22504	-390.75745	-251.45849	330.79852	-383.66071	-227.17706	406.08799	-929.24439	-267.43349	289.20739	-934.54567	-409.44724	677.41200	-477.17369	-316.55755	621.43741	-449.49963	-333.89990	563.86114	-417.13459	-473.44484	587.03625	-456.76548	-373.19686	526.54838	-434.84294	-397.64470	632.09351	-909.77414	-275.05769	571.14227	-919.11831	-444.97100	532.28930	-865.33778	-318.20277	475.31302	-894.09706	-409.84912	709.44326	-550.21223	-582.27044	785.93119	-622.66153	-414.48489	711.88094	-799.27318	-590.06043	793.48754	-717.27340	-358.22502	1147.88259	-674.00322	-244.91965	1116.68208	-522.18354	-254.34478	1127.09028	-821.80323	-224.52071	1072.72638	-650.49037	-220.71425	1073.94025	-687.43610	-208.67911	1042.91644	-418.79057	-189.55354	833.10695	-345.04971	-155.82727	893.08515	-299.57583	-59.64478	910.83932	-400.70227	20.83081	917.47764	-494.08522	44.80101	893.77092	-484.51894	-206.77776	1065.32809	-913.83593	-162.45918	839.86997	-990.86572	-140.19695	913.37562	-1032.80281	-84.22511	939.22658	-940.50990	-0.96870	956.17151	-826.75201	28.37356	948.94408	-844.46616	-497.94466	646.24297	-573.15659	-503.25704	653.81421	-779.41889	-489.44228	646.26734	-583.42745	-502.89182	659.31175	-746.77292	
417	4.16000000	-176.33859	466.97273	-407.95812	-126.48857	391.33811	-404.84596	-299.60225	97.29537	-403.80810	-369.12511	62.29298	-442.53985	-208.25715	45.86348	-349.80411	-153.86727	71.23912	-399.35696	-183.19035	464.93145	-920.84608	-146.45548	371.51007	-938.68449	-299.73271	97.15861	-905.91469	-368.48830	63.04713	-861.10003	-201.03536	41.52097	-959.95209	-155.42971	62.82649	-907.12603	-187.53359	294.11083	-383.30243	-197.41828	428.72859	-390.32508	-252.29964	330.70997	-383.30196	-228.89354	406.52711	-929.32335	-268.59248	289.56578	-934.73139	-403.95949	685.94946	-475.66208	-312.72122	626.64722	-448.16652	-331.81241	569.16760	-416.88436	-470.43304	596.33536	-457.69062	-371.86639	533.05150	-435.16628	-394.06102	639.02895	-909.64452	-273.30303	574.53341	-919.75827	-443.54855	541.17597	-864.29658	-318.87119	480.24530	-893.44381	-405.73365	721.83170	-549.78467	-579.47876	797.06783	-622.69626	-410.73142	723.52861	-799.80111	-587.36771	804.34650	-717.49927	-359.31926	1162.40814	-673.89375	-246.47497	1131.07878	-521.12276	-256.11376	1141.87798	-823.14718	-225.17624	1088.46568	-650.32367	-221.44927	1090.20846	-687.20805	-212.39172	1054.47305	-417.37548	-199.42808	843.63340	-345.39277	-164.58931	902.20804	-298.98371	-67.06151	918.09641	-399.16832	14.50793	923.04277	-491.84026	37.84087	898.82975	-482.09310	-210.22992	1077.38774	-915.38503	-172.29203	850.20409	-990.36645	-149.43505	922.53152	-1033.65894	-91.64636	948.04514	-942.51327	-6.23193	964.15806	-830.35017	22.59020	955.97270	-848.10748	-493.73196	658.05126	-572.94632	-499.30147	664.98341	-779.22659	-485.19587	657.66061	-582.98403	-498.84301	670.25245	-746.98370	
418	4.17000000	-177.22120	467.74795	-407.67173	-127.83053	392.13968	-404.91521	-299.70391	97.24983	-403.69742	-369.15772	62.31343	-442.56901	-208.28749	45.82964	-349.79865	-153.88804	71.21954	-399.37644	-184.71351	465.93075	-920.81290	-148.24978	372.73735	-938.48042	-299.81063	97.07275	-905.94194	-368.48982	63.00345	-861.11298	-201.02080	41.53580	-960.07088	-155.47399	62.79268	-907.15693	-188.30529	294.63488	-383.15950	-199.04681	429.28662	-390.02774	-253.41179	330.58839	-382.89425	-230.93876	406.96290	-929.07210	-269.91320	289.98379	-934.67115	-398.44879	694.35197	-473.82485	-308.81106	631.89270	-446.66754	-329.89746	574.63209	-416.52960	-467.25866	605.88394	-458.71764	-370.62160	539.76057	-435.66561	-390.67246	646.15891	-909.91781	-271.77999	577.74971	-920.14151	-442.22553	550.28665	-863.13936	-319.72117	485.17617	-892.06063	-401.50587	734.80632	-549.36353	-576.62844	808.15369	-622.45257	-406.83418	735.93113	-800.46334	-584.64935	815.32627	-717.73030	-360.65984	1177.20650	-673.71883	-248.14380	1145.57603	-520.02675	-258.19836	1156.93398	-824.36353	-226.04174	1104.65402	-650.05822	-222.47566	1106.81396	-686.89722	-216.38974	1066.26423	-415.96145	-209.49958	854.52118	-346.18947	-173.68514	911.66734	-298.71944	-74.77542	925.46257	-397.88284	7.85070	928.64578	-489.80181	30.44467	903.95039	-479.78621	-214.59900	1089.70223	-916.92727	-183.69414	860.43430	-990.12257	-159.22701	931.76306	-1033.95895	-99.40842	957.00837	-944.09321	-11.76757	972.37836	-833.78839	16.59641	963.17513	-851.31495	-489.08599	670.12043	-572.81919	-494.98251	676.61678	-779.10417	-480.55878	669.20531	-582.70910	-494.42523	681.60658	-747.42680	
419	4.18000000	-178.42262	468.68063	-407.48572	-129.52578	393.19807	-405.36854	-299.84039	97.17974	-403.68771	-369.15602	62.31588	-442.59745	-208.29529	45.81002	-349.79846	-153.91906	71.19150	-399.36089	-186.61123	466.92544	-920.45925	-150.30512	373.90061	-937.81787	-299.88160	97.08787	-906.05261	-368.48897	62.99627	-861.14501	-201.03220	41.52792	-960.08432	-155.49037	62.77476	-907.15821	-189.24048	295.30280	-383.36045	-201.03312	429.94511	-390.02166	-254.75978	331.09562	-382.62409	-233.22234	407.58270	-928.56681	-271.28055	290.75704	-934.73378	-392.65680	702.33638	-472.68441	-305.01796	637.20990	-445.15405	-328.22877	580.27506	-416.20169	-463.78707	615.20381	-460.33700	-369.48500	546.68221	-436.44603	-387.19422	652.99617	-909.40052	-270.53325	580.79575	-920.06394	-441.10018	559.47437	-861.53348	-320.76337	490.22985	-890.11039	-397.17583	748.53465	-548.88943	-573.79980	819.32765	-622.20791	-402.86954	748.54067	-800.69775	-581.89643	826.24086	-717.80873	-362.25395	1192.28822	-673.56512	-250.04862	1160.28905	-518.71581	-260.43647	1172.28441	-825.62737	-227.10115	1121.16488	-649.77884	-223.27074	1122.70229	-686.67996	-220.69487	1078.26216	-414.66840	-219.84882	865.72615	-347.00925	-183.01619	921.48502	-298.72513	-82.71835	932.92227	-396.69392	0.92237	934.32251	-487.97785	22.73012	909.09512	-477.63898	-219.47060	1102.33673	-918.29034	-195.82669	870.90210	-989.44520	-169.43631	941.24715	-1033.92267	-107.59861	966.06984	-945.43502	-17.47880	980.66016	-836.57581	10.26805	970.44917	-854.30652	-484.15251	682.66278	-572.32765	-490.38314	688.28979	-778.62674	-475.62516	681.22152	-582.28024	-489.61757	693.16853	-747.49512	
420	4.19000000	-180.02862	469.76603	-407.59681	-131.69547	394.57569	-406.08710	-299.96043	97.24654	-403.63392	-369.12213	62.30717	-442.60999	-208.29513	45.77224	-349.77752	-153.95679	71.16356	-399.31739	-188.83026	467.95120	-919.73173	-152.64198	374.99220	-936.98330	-299.97496	97.17682	-906.22075	-368.49867	62.99308	-861.15437	-201.06339	41.50474	-959.97572	-155.49660	62.79346	-907.12627	-190.61184	296.31844	-383.74411	-203.32343	430.76494	-390.46605	-256.32539	331.71286	-382.79035	-235.77476	408.52172	-928.05067	-272.75159	291.96467	-934.93554	-386.80837	710.42428	-471.84582	-301.35871	642.43173	-443.64623	-326.66068	585.67005	-416.47829	-460.17230	624.38263	-462.48033	-368.51574	553.80393	-437.57011	-383.32697	659.29113	-907.49285	-269.58013	583.82121	-919.73521	-440.08055	568.73090	-859.26591	-322.05170	495.48981	-887.75171	-392.62959	763.12615	-548.34123	-570.97491	830.62578	-622.18676	-398.79670	761.55633	-800.57653	-579.08549	837.12698	-717.82852	-363.97557	1207.71796	-673.46958	-252.16222	1175.31941	-517.15885	-262.75947	1187.82621	-826.91681	-228.34427	1137.87998	-649.53955	-224.33916	1139.44027	-686.50041	-225.25851	1090.45879	-413.51789	-230.61196	877.29162	-347.68361	-192.50166	931.54834	-299.11337	-90.81955	940.54108	-395.70139	-6.18986	939.95474	-486.44373	14.87371	914.24349	-475.64179	-224.17976	1115.25472	-919.51730	-207.70686	882.05062	-987.87333	-180.03107	951.00667	-1033.53492	-116.11447	975.24384	-946.51605	-23.29449	988.89337	-838.94095	3.42156	977.72507	-857.29965	-478.84315	695.77642	-571.57792	-485.35816	700.12238	-777.89996	-470.27404	693.78291	-581.69729	-484.31356	705.03507	-747.25036	
